<svg xmlns="http://www.w3.org/2000/svg" xmlns:xlink="http://www.w3.org/1999/xlink" style="display: none" fill="currentColor">
  <symbol id="bell" width="15" height="18" viewBox="0 0 15 18">
    <path d="M7.38461 18C8.4 18 9.23077 17.1692 9.23077 16.1538H5.53846C5.53846 17.1692 6.36923 18 7.38461 18ZM12.9231 12.4615V7.84615C12.9231 5.01231 11.4185 2.64 8.76923 2.01231V1.38462C8.76923 0.618462 8.15077 0 7.38461 0C6.61846 0 6 0.618462 6 1.38462V2.01231C3.36 2.64 1.84615 5.00308 1.84615 7.84615V12.4615L0 14.3077V15.2308H14.7692V14.3077L12.9231 12.4615ZM11.0769 13.3846H3.69231V7.84615C3.69231 5.55692 5.08615 3.69231 7.38461 3.69231C9.68308 3.69231 11.0769 5.55692 11.0769 7.84615V13.3846Z" fill="white"/>
  </symbol>
  <symbol id="cross-circle" width="9" height="9" viewBox="0 0 9 9" fill="none" xmlns="http://www.w3.org/2000/svg">
    <path d="M4.5 0C2.0115 0 0 2.0115 0 4.5C0 6.9885 2.0115 9 4.5 9C6.9885 9 9 6.9885 9 4.5C9 2.0115 6.9885 0 4.5 0ZM6.435 6.435C6.2595 6.6105 5.976 6.6105 5.8005 6.435L4.5 5.1345L3.1995 6.435C3.024 6.6105 2.7405 6.6105 2.565 6.435C2.3895 6.2595 2.3895 5.976 2.565 5.8005L3.8655 4.5L2.565 3.1995C2.3895 3.024 2.3895 2.7405 2.565 2.565C2.7405 2.3895 3.024 2.3895 3.1995 2.565L4.5 3.8655L5.8005 2.565C5.976 2.3895 6.2595 2.3895 6.435 2.565C6.6105 2.7405 6.6105 3.024 6.435 3.1995L5.1345 4.5L6.435 5.8005C6.606 5.9715 6.606 6.2595 6.435 6.435Z" fill="white"/>
  </svg>
</svg>
