<svg width="147" height="79" viewBox="0 0 147 79" fill="none" xmlns="http://www.w3.org/2000/svg">
<path d="M72.071 41.1932C72.0618 40.6823 72.1449 40.2714 72.3203 39.9606C72.4957 39.6497 72.7235 39.4235 73.0036 39.282C73.2867 39.1404 73.5852 39.0696 73.8991 39.0696C74.2131 39.0696 74.4993 39.1388 74.7578 39.2773C75.0194 39.4128 75.3179 39.6267 75.6534 39.919C75.8812 40.116 76.0627 40.2545 76.1982 40.3345C76.3366 40.4145 76.4875 40.4545 76.6506 40.4545C76.9152 40.4545 77.1245 40.3591 77.2784 40.1683C77.4323 39.9744 77.5062 39.6944 77.5 39.3281H78.4972C78.5064 39.839 78.4233 40.2499 78.2479 40.5607C78.0755 40.8716 77.8478 41.0978 77.5646 41.2393C77.2815 41.3809 76.983 41.4517 76.669 41.4517C76.3551 41.4517 76.0689 41.384 75.8104 41.2486C75.5518 41.1101 75.2533 40.8946 74.9148 40.6023C74.6901 40.4053 74.5085 40.2668 74.37 40.1868C74.2315 40.1068 74.0807 40.0668 73.9176 40.0668C73.6683 40.0668 73.4621 40.1545 73.299 40.3299C73.139 40.5022 73.062 40.79 73.0682 41.1932H72.071ZM83.6503 36.9091V37.8324H79.9756V36.9091H83.6503ZM81.0466 35.2102H82.1361V41.9688C82.1361 42.2765 82.1807 42.5073 82.27 42.6612C82.3623 42.812 82.4793 42.9136 82.6208 42.9659C82.7655 43.0152 82.9178 43.0398 83.0779 43.0398C83.1979 43.0398 83.2964 43.0336 83.3733 43.0213C83.4503 43.0059 83.5118 42.9936 83.558 42.9844L83.7796 43.9631C83.7057 43.9908 83.6026 44.0185 83.4703 44.0462C83.3379 44.0769 83.1702 44.0923 82.9671 44.0923C82.6593 44.0923 82.3577 44.0262 82.0622 43.8938C81.7699 43.7615 81.5267 43.5599 81.3328 43.2891C81.142 43.0182 81.0466 42.6766 81.0466 42.2642V35.2102ZM85.2892 44V36.9091H86.3786V44H85.2892ZM85.8431 35.7273C85.6308 35.7273 85.4477 35.6549 85.2938 35.5103C85.143 35.3656 85.0676 35.1918 85.0676 34.9886C85.0676 34.7855 85.143 34.6116 85.2938 34.467C85.4477 34.3223 85.6308 34.25 85.8431 34.25C86.0555 34.25 86.2371 34.3223 86.3879 34.467C86.5418 34.6116 86.6187 34.7855 86.6187 34.9886C86.6187 35.1918 86.5418 35.3656 86.3879 35.5103C86.2371 35.6549 86.0555 35.7273 85.8431 35.7273ZM88.3741 44V36.9091H89.4267V37.9801H89.5005C89.6298 37.6293 89.8637 37.3446 90.2022 37.1261C90.5408 36.9076 90.9224 36.7983 91.3471 36.7983C91.4271 36.7983 91.5272 36.7998 91.6472 36.8029C91.7672 36.806 91.858 36.8106 91.9196 36.8168V37.9247C91.8826 37.9155 91.798 37.9016 91.6657 37.8832C91.5364 37.8616 91.3994 37.8509 91.2548 37.8509C90.9101 37.8509 90.6023 37.9232 90.3315 38.0678C90.0637 38.2094 89.8514 38.4064 89.6944 38.6587C89.5405 38.908 89.4636 39.1927 89.4636 39.5128V44H88.3741ZM93.211 44V36.9091H94.2636V37.9801H94.3374C94.4667 37.6293 94.7006 37.3446 95.0392 37.1261C95.3777 36.9076 95.7593 36.7983 96.184 36.7983C96.2641 36.7983 96.3641 36.7998 96.4841 36.8029C96.6041 36.806 96.6949 36.8106 96.7565 36.8168V37.9247C96.7195 37.9155 96.6349 37.9016 96.5026 37.8832C96.3733 37.8616 96.2364 37.8509 96.0917 37.8509C95.747 37.8509 95.4392 37.9232 95.1684 38.0678C94.9007 38.2094 94.6883 38.4064 94.5313 38.6587C94.3775 38.908 94.3005 39.1927 94.3005 39.5128V44H93.211ZM100.805 44.1477C100.122 44.1477 99.5325 43.9969 99.037 43.6953C98.5446 43.3906 98.1645 42.9659 97.8968 42.4212C97.6321 41.8733 97.4997 41.2363 97.4997 40.5099C97.4997 39.7836 97.6321 39.1435 97.8968 38.5895C98.1645 38.0324 98.5369 37.5985 99.0139 37.2876C99.4941 36.9737 100.054 36.8168 100.694 36.8168C101.064 36.8168 101.428 36.8783 101.788 37.0014C102.149 37.1245 102.476 37.3246 102.772 37.6016C103.067 37.8755 103.303 38.2386 103.478 38.6911C103.653 39.1435 103.741 39.7005 103.741 40.3622V40.8239H98.2753V39.8821H102.633C102.633 39.482 102.553 39.125 102.393 38.8111C102.236 38.4972 102.012 38.2494 101.719 38.0678C101.43 37.8862 101.088 37.7955 100.694 37.7955C100.26 37.7955 99.8849 37.9032 99.5679 38.1186C99.254 38.331 99.0124 38.608 98.8431 38.9496C98.6739 39.2912 98.5892 39.6574 98.5892 40.0483V40.6761C98.5892 41.2116 98.6816 41.6656 98.8662 42.038C99.0539 42.4073 99.314 42.6889 99.6464 42.8828C99.9788 43.0736 100.365 43.169 100.805 43.169C101.091 43.169 101.35 43.129 101.581 43.049C101.815 42.9659 102.016 42.8428 102.185 42.6797C102.355 42.5135 102.486 42.3073 102.578 42.0611L103.63 42.3565C103.52 42.7135 103.333 43.0275 103.072 43.2983C102.81 43.5661 102.487 43.7753 102.102 43.9261C101.718 44.0739 101.285 44.1477 100.805 44.1477ZM106.488 34.5455V44H105.399V34.5455H106.488ZM115.02 44.1477C114.356 44.1477 113.783 43.9908 113.303 43.6768C112.823 43.3629 112.454 42.9305 112.195 42.3796C111.937 41.8287 111.807 41.1993 111.807 40.4915C111.807 39.7713 111.94 39.1358 112.204 38.5849C112.472 38.0309 112.845 37.5985 113.322 37.2876C113.802 36.9737 114.362 36.8168 115.002 36.8168C115.501 36.8168 115.95 36.9091 116.35 37.0938C116.75 37.2784 117.078 37.5369 117.333 37.8693C117.589 38.2017 117.747 38.5895 117.809 39.0327H116.719C116.636 38.7095 116.452 38.4233 116.165 38.174C115.882 37.9216 115.501 37.7955 115.02 37.7955C114.596 37.7955 114.223 37.9062 113.903 38.1278C113.586 38.3464 113.338 38.6557 113.16 39.0558C112.985 39.4528 112.897 39.919 112.897 40.4545C112.897 41.0024 112.983 41.4794 113.155 41.8857C113.331 42.2919 113.577 42.6074 113.894 42.832C114.214 43.0567 114.59 43.169 115.02 43.169C115.304 43.169 115.561 43.1198 115.791 43.0213C116.022 42.9228 116.218 42.7812 116.378 42.5966C116.538 42.4119 116.652 42.1903 116.719 41.9318H117.809C117.747 42.3504 117.595 42.7274 117.352 43.0629C117.112 43.3952 116.793 43.6599 116.396 43.8569C116.002 44.0508 115.544 44.1477 115.02 44.1477ZM122.282 44.1477C121.642 44.1477 121.08 43.9954 120.597 43.6907C120.117 43.386 119.742 42.9598 119.471 42.4119C119.203 41.8641 119.069 41.224 119.069 40.4915C119.069 39.7528 119.203 39.1081 119.471 38.5572C119.742 38.0063 120.117 37.5785 120.597 37.2738C121.08 36.9691 121.642 36.8168 122.282 36.8168C122.922 36.8168 123.482 36.9691 123.963 37.2738C124.446 37.5785 124.821 38.0063 125.089 38.5572C125.36 39.1081 125.495 39.7528 125.495 40.4915C125.495 41.224 125.36 41.8641 125.089 42.4119C124.821 42.9598 124.446 43.386 123.963 43.6907C123.482 43.9954 122.922 44.1477 122.282 44.1477ZM122.282 43.169C122.768 43.169 123.169 43.0444 123.482 42.7951C123.796 42.5458 124.029 42.218 124.18 41.8118C124.33 41.4055 124.406 40.9654 124.406 40.4915C124.406 40.0175 124.33 39.5759 124.18 39.1665C124.029 38.7572 123.796 38.4264 123.482 38.174C123.169 37.9216 122.768 37.7955 122.282 37.7955C121.796 37.7955 121.396 37.9216 121.082 38.174C120.768 38.4264 120.536 38.7572 120.385 39.1665C120.234 39.5759 120.159 40.0175 120.159 40.4915C120.159 40.9654 120.234 41.4055 120.385 41.8118C120.536 42.218 120.768 42.5458 121.082 42.7951C121.396 43.0444 121.796 43.169 122.282 43.169ZM127.158 44V36.9091H128.211V37.9801H128.285C128.414 37.6293 128.648 37.3446 128.986 37.1261C129.325 36.9076 129.707 36.7983 130.131 36.7983C130.211 36.7983 130.311 36.7998 130.431 36.8029C130.551 36.806 130.642 36.8106 130.704 36.8168V37.9247C130.667 37.9155 130.582 37.9016 130.45 37.8832C130.321 37.8616 130.184 37.8509 130.039 37.8509C129.694 37.8509 129.387 37.9232 129.116 38.0678C128.848 38.2094 128.636 38.4064 128.479 38.6587C128.325 38.908 128.248 39.1927 128.248 39.5128V44H127.158ZM131.995 46.6591V36.9091H133.048V38.0355H133.177C133.257 37.9124 133.368 37.7554 133.509 37.5646C133.654 37.3707 133.86 37.1984 134.128 37.0476C134.399 36.8937 134.765 36.8168 135.227 36.8168C135.824 36.8168 136.35 36.966 136.806 37.2646C137.261 37.5631 137.617 37.9863 137.872 38.5341C138.127 39.0819 138.255 39.7282 138.255 40.473C138.255 41.224 138.127 41.8749 137.872 42.4258C137.617 42.9736 137.263 43.3983 136.81 43.6999C136.358 43.9985 135.836 44.1477 135.245 44.1477C134.79 44.1477 134.425 44.0723 134.151 43.9215C133.877 43.7676 133.666 43.5937 133.519 43.3999C133.371 43.2029 133.257 43.0398 133.177 42.9105H133.085V46.6591H131.995ZM133.066 40.4545C133.066 40.9901 133.145 41.4625 133.302 41.8718C133.459 42.2781 133.688 42.5966 133.99 42.8274C134.291 43.0552 134.66 43.169 135.097 43.169C135.553 43.169 135.933 43.049 136.238 42.8089C136.546 42.5658 136.776 42.2396 136.93 41.8303C137.087 41.4179 137.166 40.9593 137.166 40.4545C137.166 39.956 137.089 39.5066 136.935 39.1065C136.784 38.7034 136.555 38.3848 136.247 38.1509C135.942 37.9139 135.559 37.7955 135.097 37.7955C134.654 37.7955 134.282 37.9078 133.98 38.1325C133.679 38.354 133.451 38.6649 133.297 39.065C133.143 39.462 133.066 39.9252 133.066 40.4545ZM140.711 44.0739C140.483 44.0739 140.288 43.9923 140.125 43.8292C139.962 43.6661 139.88 43.4706 139.88 43.2429C139.88 43.0152 139.962 42.8197 140.125 42.6566C140.288 42.4935 140.483 42.4119 140.711 42.4119C140.939 42.4119 141.134 42.4935 141.297 42.6566C141.461 42.8197 141.542 43.0152 141.542 43.2429C141.542 43.3937 141.504 43.5322 141.427 43.6584C141.353 43.7846 141.253 43.8861 141.127 43.9631C141.003 44.0369 140.865 44.0739 140.711 44.0739Z" fill="white"/>
<g clip-path="url(#clip0_321_4)">
<path d="M16.6641 28.3545C16.6641 40.6651 26.6438 50.6448 38.9544 50.6448V28.3545H16.6641Z" fill="white"/>
<path d="M16.6636 28.3545L38.9515 50.6424" stroke="black" stroke-width="0.759687" stroke-linecap="square"/>
<path d="M27.8092 42.2865C29.3481 42.2865 30.5955 41.039 30.5955 39.5002C30.5955 37.9613 29.3481 36.7139 27.8092 36.7139C26.2704 36.7139 25.0229 37.9613 25.0229 39.5002C25.0229 41.039 26.2704 42.2865 27.8092 42.2865Z" stroke="black" stroke-width="0.759687" stroke-linecap="square"/>
<path d="M27.8094 45.0719C30.8871 45.0719 33.382 42.577 33.382 39.4993C33.382 36.4217 30.8871 33.9268 27.8094 33.9268C24.7317 33.9268 22.2368 36.4217 22.2368 39.4993C22.2368 42.577 24.7317 45.0719 27.8094 45.0719Z" stroke="black" stroke-width="0.759687" stroke-linecap="square"/>
<path d="M40.0454 50.6354C40.0505 38.3291 50.0283 28.3545 62.3357 28.3545C62.3357 40.6633 52.3589 50.642 40.0507 50.6448C40.049 50.6448 40.0472 50.6448 40.0454 50.6448L40.0454 50.6354Z" fill="white"/>
<path d="M62.3357 39.5H40.0454" stroke="black" stroke-width="0.759687" stroke-linecap="square"/>
<path d="M62.3357 45.0723H40.0454" stroke="black" stroke-width="0.759687" stroke-linecap="square"/>
<path d="M62.3357 33.9268H40.0454" stroke="black" stroke-width="0.759687" stroke-linecap="square"/>
</g>
<defs>
<clipPath id="clip0_321_4">
<rect width="79" height="79" fill="white"/>
</clipPath>
</defs>
</svg>
